<?xml version="1.0" encoding="UTF-8"?>
<svg xmlns="http://www.w3.org/2000/svg" xmlns:xlink="http://www.w3.org/1999/xlink" width="144px" height="144px" viewBox="0 0 144 144" version="1.1">
<g id="surface1">
<path style=" stroke:none;fill-rule:nonzero;fill:rgb(0%,0%,0%);fill-opacity:1;" d="M 46.214844 14.917969 C 37.574219 12.601562 28.6875 17.730469 26.390625 26.371094 L 14.960938 69.007812 C 12.644531 77.648438 17.773438 86.535156 26.414062 88.851562 L 69.050781 100.28125 C 77.691406 102.601562 86.578125 97.46875 88.898438 88.828125 L 100.328125 46.191406 C 102.644531 37.550781 97.515625 28.664062 88.875 26.347656 Z M 51.390625 61.199219 C 50.015625 58.972656 49.972656 56.160156 51.253906 53.886719 C 52.539062 51.613281 54.96875 50.21875 57.601562 50.242188 C 60.210938 50.265625 62.59375 51.703125 63.855469 54 C 65.226562 56.226562 65.273438 59.039062 63.988281 61.3125 C 62.707031 63.585938 60.277344 64.980469 57.644531 64.957031 C 55.035156 64.933594 52.648438 63.496094 51.390625 61.199219 Z M 32.21875 63.96875 C 34.449219 62.59375 37.261719 62.550781 39.53125 63.832031 C 41.804688 65.113281 43.199219 67.546875 43.175781 70.175781 C 43.15625 72.789062 41.714844 75.171875 39.421875 76.433594 C 37.191406 77.804688 34.378906 77.851562 32.109375 76.566406 C 29.835938 75.285156 28.441406 72.855469 28.460938 70.222656 C 28.484375 67.613281 29.925781 65.226562 32.21875 63.96875 Z M 73.84375 85.65625 C 71.617188 87.03125 68.804688 87.074219 66.53125 85.792969 C 64.261719 84.511719 62.863281 82.078125 62.886719 79.449219 C 62.910156 76.835938 64.351562 74.453125 66.644531 73.191406 C 68.871094 71.820312 71.683594 71.773438 73.957031 73.058594 C 76.230469 74.339844 77.625 76.769531 77.601562 79.402344 C 77.578125 82.011719 76.140625 84.398438 73.84375 85.65625 Z M 75.871094 38.765625 C 78.097656 37.394531 80.910156 37.351562 83.183594 38.632812 C 85.453125 39.914062 86.851562 42.34375 86.828125 44.976562 C 86.804688 47.585938 85.363281 49.972656 83.070312 51.234375 C 80.84375 52.605469 78.03125 52.648438 75.757812 51.367188 C 73.484375 50.085938 72.089844 47.65625 72.113281 45.023438 C 72.136719 42.414062 73.574219 40.027344 75.871094 38.765625 Z M 48.644531 42.007812 C 46.417969 43.378906 43.605469 43.425781 41.332031 42.140625 C 39.058594 40.859375 37.664062 38.429688 37.6875 35.796875 C 37.710938 33.1875 39.148438 30.800781 41.445312 29.542969 C 43.671875 28.171875 46.484375 28.125 48.757812 29.40625 C 51.03125 30.691406 52.425781 33.121094 52.402344 35.753906 C 52.378906 38.363281 50.941406 40.746094 48.644531 42.007812 Z M 108.449219 57.601562 L 99.316406 91.621094 C 95.445312 106.019531 80.640625 114.570312 66.238281 110.722656 L 57.621094 108.40625 L 57.621094 115.199219 C 57.621094 123.140625 64.078125 129.601562 72.023438 129.601562 L 115.222656 129.601562 C 123.164062 129.601562 129.621094 123.140625 129.621094 115.199219 L 129.621094 72 C 129.621094 64.058594 123.164062 57.601562 115.222656 57.601562 Z M 108.449219 57.601562 "/>
</g>
</svg>
