<?xml version="1.0" encoding="UTF-8"?>
<svg xmlns="http://www.w3.org/2000/svg" xmlns:xlink="http://www.w3.org/1999/xlink" width="152px" height="152px" viewBox="0 0 152 152" version="1.1">
<g id="surface1">
<path style=" stroke:none;fill-rule:nonzero;fill:rgb(0%,0%,0%);fill-opacity:1;" d="M 48.78125 15.746094 C 39.664062 13.300781 30.28125 18.714844 27.859375 27.835938 L 15.792969 72.839844 C 13.347656 81.960938 18.761719 91.34375 27.882812 93.789062 L 72.890625 105.855469 C 82.007812 108.300781 91.390625 102.886719 93.835938 93.765625 L 105.902344 48.757812 C 108.347656 39.640625 102.933594 30.257812 93.8125 27.8125 Z M 54.246094 64.601562 C 52.796875 62.25 52.75 59.28125 54.101562 56.882812 C 55.457031 54.484375 58.019531 53.011719 60.800781 53.035156 C 63.554688 53.058594 66.074219 54.578125 67.402344 57 C 68.851562 59.351562 68.898438 62.320312 67.546875 64.71875 C 66.191406 67.117188 63.625 68.589844 60.847656 68.566406 C 58.09375 68.542969 55.574219 67.023438 54.246094 64.601562 Z M 34.011719 67.519531 C 36.359375 66.074219 39.328125 66.023438 41.730469 67.378906 C 44.128906 68.734375 45.601562 71.296875 45.578125 74.078125 C 45.550781 76.832031 44.03125 79.347656 41.609375 80.679688 C 39.257812 82.128906 36.289062 82.175781 33.890625 80.820312 C 31.492188 79.46875 30.019531 76.902344 30.042969 74.125 C 30.066406 71.367188 31.585938 68.851562 34.011719 67.519531 Z M 77.949219 90.417969 C 75.597656 91.863281 72.628906 91.914062 70.230469 90.558594 C 67.828125 89.203125 66.359375 86.640625 66.382812 83.859375 C 66.40625 81.105469 67.925781 78.589844 70.347656 77.257812 C 72.699219 75.808594 75.667969 75.761719 78.066406 77.117188 C 80.464844 78.46875 81.9375 81.035156 81.914062 83.8125 C 81.890625 86.570312 80.371094 89.085938 77.949219 90.417969 Z M 80.085938 40.921875 C 82.4375 39.472656 85.40625 39.425781 87.804688 40.777344 C 90.203125 42.132812 91.675781 44.699219 91.652344 47.476562 C 91.628906 50.230469 90.109375 52.75 87.683594 54.078125 C 85.332031 55.527344 82.363281 55.574219 79.964844 54.222656 C 77.566406 52.867188 76.09375 50.300781 76.117188 47.523438 C 76.140625 44.769531 77.664062 42.25 80.085938 40.921875 Z M 51.347656 44.339844 C 48.996094 45.789062 46.027344 45.835938 43.628906 44.484375 C 41.230469 43.128906 39.757812 40.566406 39.78125 37.785156 C 39.804688 35.03125 41.324219 32.515625 43.746094 31.183594 C 46.097656 29.734375 49.066406 29.6875 51.464844 31.042969 C 53.863281 32.394531 55.335938 34.960938 55.3125 37.738281 C 55.289062 40.492188 53.769531 43.011719 51.347656 44.339844 Z M 114.476562 60.800781 L 104.832031 96.710938 C 100.746094 111.910156 85.121094 120.933594 69.921875 116.875 L 60.824219 114.425781 L 60.824219 121.601562 C 60.824219 129.984375 67.640625 136.800781 76.023438 136.800781 L 121.625 136.800781 C 130.007812 136.800781 136.824219 129.984375 136.824219 121.601562 L 136.824219 76 C 136.824219 67.617188 130.007812 60.800781 121.625 60.800781 Z M 114.476562 60.800781 "/>
</g>
</svg>
