<?xml version="1.0" encoding="UTF-8"?>
<svg xmlns="http://www.w3.org/2000/svg" xmlns:xlink="http://www.w3.org/1999/xlink" width="192px" height="192px" viewBox="0 0 192 192" version="1.1">
<g id="surface1">
<path style=" stroke:none;fill-rule:nonzero;fill:rgb(0%,0%,0%);fill-opacity:1;" d="M 61.621094 19.890625 C 50.101562 16.800781 38.25 23.640625 35.191406 35.160156 L 19.949219 92.011719 C 16.859375 103.53125 23.699219 115.378906 35.21875 118.46875 L 92.070312 133.710938 C 103.589844 136.800781 115.441406 129.960938 118.53125 118.441406 L 133.769531 61.589844 C 136.859375 50.070312 130.019531 38.21875 118.5 35.128906 Z M 68.519531 81.601562 C 66.691406 78.628906 66.628906 74.878906 68.339844 71.851562 C 70.050781 68.820312 73.289062 66.960938 76.800781 66.988281 C 80.28125 67.019531 83.460938 68.941406 85.140625 72 C 86.96875 74.96875 87.03125 78.71875 85.320312 81.75 C 83.609375 84.78125 80.371094 86.640625 76.859375 86.609375 C 73.378906 86.578125 70.199219 84.660156 68.519531 81.601562 Z M 42.960938 85.289062 C 45.929688 83.460938 49.679688 83.398438 52.710938 85.109375 C 55.738281 86.820312 57.601562 90.058594 57.570312 93.570312 C 57.539062 97.050781 55.621094 100.230469 52.558594 101.910156 C 49.589844 103.738281 45.839844 103.800781 42.808594 102.089844 C 39.78125 100.378906 37.921875 97.140625 37.949219 93.628906 C 37.980469 90.148438 39.898438 86.96875 42.960938 85.289062 Z M 98.460938 114.210938 C 95.488281 116.039062 91.738281 116.101562 88.710938 114.390625 C 85.679688 112.679688 83.820312 109.441406 83.851562 105.929688 C 83.878906 102.449219 85.800781 99.269531 88.859375 97.589844 C 91.828125 95.761719 95.578125 95.699219 98.609375 97.410156 C 101.640625 99.121094 103.5 102.359375 103.46875 105.871094 C 103.441406 109.351562 101.519531 112.53125 98.460938 114.210938 Z M 101.160156 51.691406 C 104.128906 49.859375 107.878906 49.800781 110.910156 51.511719 C 113.941406 53.21875 115.800781 56.460938 115.769531 59.96875 C 115.738281 63.449219 113.820312 66.628906 110.761719 68.308594 C 107.789062 70.140625 104.039062 70.199219 101.011719 68.488281 C 97.980469 66.78125 96.121094 63.539062 96.148438 60.03125 C 96.179688 56.550781 98.101562 53.371094 101.160156 51.691406 Z M 64.859375 56.011719 C 61.890625 57.839844 58.140625 57.898438 55.109375 56.191406 C 52.078125 54.480469 50.21875 51.238281 50.25 47.730469 C 50.28125 44.25 52.199219 41.070312 55.261719 39.390625 C 58.230469 37.558594 61.980469 37.5 65.011719 39.210938 C 68.039062 40.921875 69.898438 44.160156 69.871094 47.671875 C 69.839844 51.148438 67.921875 54.328125 64.859375 56.011719 Z M 144.601562 76.800781 L 132.421875 122.160156 C 127.261719 141.359375 107.519531 152.761719 88.320312 147.628906 L 76.828125 144.539062 L 76.828125 153.601562 C 76.828125 164.191406 85.441406 172.800781 96.03125 172.800781 L 153.628906 172.800781 C 164.21875 172.800781 172.828125 164.191406 172.828125 153.601562 L 172.828125 96 C 172.828125 85.410156 164.21875 76.800781 153.628906 76.800781 Z M 144.601562 76.800781 "/>
</g>
</svg>
