<?xml version="1.0" encoding="UTF-8"?>
<svg xmlns="http://www.w3.org/2000/svg" xmlns:xlink="http://www.w3.org/1999/xlink" width="96px" height="96px" viewBox="0 0 96 96" version="1.1">
<g id="surface1">
<path style=" stroke:none;fill-rule:nonzero;fill:rgb(0%,0%,0%);fill-opacity:1;" d="M 30.808594 9.945312 C 25.050781 8.398438 19.125 11.820312 17.59375 17.578125 L 9.976562 46.003906 C 8.429688 51.765625 11.851562 57.691406 17.609375 59.234375 L 46.035156 66.855469 C 51.796875 68.398438 57.71875 64.980469 59.265625 59.21875 L 66.886719 30.796875 C 68.429688 25.035156 65.011719 19.109375 59.25 17.566406 Z M 34.261719 40.800781 C 33.34375 39.316406 33.316406 37.441406 34.171875 35.925781 C 35.023438 34.410156 36.644531 33.480469 38.398438 33.496094 C 40.140625 33.511719 41.730469 34.46875 42.570312 36 C 43.484375 37.484375 43.515625 39.359375 42.660156 40.875 C 41.804688 42.390625 40.183594 43.320312 38.429688 43.304688 C 36.691406 43.289062 35.101562 42.328125 34.261719 40.800781 Z M 21.480469 42.644531 C 22.964844 41.730469 24.839844 41.699219 26.355469 42.554688 C 27.871094 43.410156 28.800781 45.03125 28.785156 46.785156 C 28.769531 48.523438 27.808594 50.113281 26.28125 50.953125 C 24.796875 51.871094 22.921875 51.898438 21.40625 51.046875 C 19.890625 50.191406 18.960938 48.570312 18.976562 46.816406 C 18.988281 45.074219 19.949219 43.484375 21.480469 42.644531 Z M 49.230469 57.105469 C 47.746094 58.019531 45.871094 58.050781 44.355469 57.195312 C 42.839844 56.339844 41.910156 54.71875 41.925781 52.964844 C 41.941406 51.226562 42.898438 49.636719 44.429688 48.796875 C 45.914062 47.878906 47.789062 47.851562 49.304688 48.703125 C 50.820312 49.558594 51.75 51.179688 51.734375 52.933594 C 51.71875 54.675781 50.761719 56.265625 49.230469 57.105469 Z M 50.578125 25.84375 C 52.066406 24.929688 53.941406 24.898438 55.453125 25.753906 C 56.96875 26.609375 57.898438 28.230469 57.886719 29.984375 C 57.871094 31.726562 56.910156 33.316406 55.378906 34.15625 C 53.894531 35.070312 52.019531 35.101562 50.503906 34.246094 C 48.988281 33.390625 48.058594 31.769531 48.074219 30.015625 C 48.089844 28.273438 49.050781 26.683594 50.578125 25.84375 Z M 32.429688 28.003906 C 30.945312 28.921875 29.070312 28.949219 27.554688 28.09375 C 26.039062 27.238281 25.109375 25.621094 25.125 23.863281 C 25.140625 22.125 26.101562 20.535156 27.628906 19.695312 C 29.113281 18.78125 30.988281 18.75 32.503906 19.605469 C 34.019531 20.460938 34.949219 22.078125 34.933594 23.835938 C 34.921875 25.574219 33.960938 27.164062 32.429688 28.003906 Z M 72.300781 38.398438 L 66.210938 61.078125 C 63.628906 70.679688 53.761719 76.378906 44.160156 73.816406 L 38.414062 72.269531 L 38.414062 76.800781 C 38.414062 82.09375 42.71875 86.398438 48.015625 86.398438 L 76.816406 86.398438 C 82.109375 86.398438 86.414062 82.09375 86.414062 76.800781 L 86.414062 48 C 86.414062 42.703125 82.109375 38.398438 76.816406 38.398438 Z M 72.300781 38.398438 "/>
</g>
</svg>
