<?xml version="1.0" encoding="UTF-8"?>
<svg xmlns="http://www.w3.org/2000/svg" xmlns:xlink="http://www.w3.org/1999/xlink" width="384px" height="384px" viewBox="0 0 384 384" version="1.1">
<g id="surface1">
<path style=" stroke:none;fill-rule:nonzero;fill:rgb(0%,0%,0%);fill-opacity:1;" d="M 123.238281 39.78125 C 100.199219 33.601562 76.5 47.28125 70.378906 70.320312 L 39.898438 184.019531 C 33.71875 207.058594 47.398438 230.761719 70.441406 236.941406 L 184.140625 267.421875 C 207.179688 273.601562 230.878906 259.921875 237.058594 236.878906 L 267.539062 123.179688 C 273.71875 100.140625 260.039062 76.441406 237 70.261719 Z M 137.039062 163.199219 C 133.378906 157.261719 133.261719 149.761719 136.679688 143.699219 C 140.101562 137.640625 146.578125 133.921875 153.601562 133.980469 C 160.558594 134.039062 166.921875 137.878906 170.28125 144 C 173.941406 149.941406 174.058594 157.441406 170.640625 163.5 C 167.21875 169.558594 160.738281 173.28125 153.71875 173.21875 C 146.761719 173.160156 140.398438 169.320312 137.039062 163.199219 Z M 85.921875 170.578125 C 91.859375 166.921875 99.359375 166.800781 105.421875 170.21875 C 111.480469 173.640625 115.199219 180.121094 115.140625 187.140625 C 115.078125 194.101562 111.238281 200.460938 105.121094 203.820312 C 99.179688 207.480469 91.679688 207.601562 85.621094 204.179688 C 79.558594 200.761719 75.839844 194.28125 75.898438 187.261719 C 75.960938 180.300781 79.800781 173.941406 85.921875 170.578125 Z M 196.921875 228.421875 C 190.980469 232.078125 183.480469 232.199219 177.421875 228.78125 C 171.359375 225.359375 167.640625 218.878906 167.699219 211.859375 C 167.761719 204.898438 171.601562 198.539062 177.71875 195.179688 C 183.660156 191.519531 191.160156 191.398438 197.21875 194.820312 C 203.28125 198.238281 207 204.71875 206.941406 211.738281 C 206.878906 218.699219 203.039062 225.058594 196.921875 228.421875 Z M 202.320312 103.378906 C 208.261719 99.71875 215.761719 99.601562 221.820312 103.019531 C 227.878906 106.441406 231.601562 112.921875 231.539062 119.941406 C 231.480469 126.898438 227.640625 133.261719 221.519531 136.621094 C 215.578125 140.28125 208.078125 140.398438 202.019531 136.980469 C 195.960938 133.558594 192.238281 127.078125 192.300781 120.058594 C 192.359375 113.101562 196.199219 106.738281 202.320312 103.378906 Z M 129.71875 112.019531 C 123.78125 115.679688 116.28125 115.800781 110.21875 112.378906 C 104.160156 108.960938 100.441406 102.480469 100.5 95.460938 C 100.558594 88.5 104.398438 82.140625 110.519531 78.78125 C 116.460938 75.121094 123.960938 75 130.019531 78.421875 C 136.078125 81.839844 139.800781 88.320312 139.738281 95.339844 C 139.679688 102.300781 135.839844 108.660156 129.71875 112.019531 Z M 289.199219 153.601562 L 264.839844 244.320312 C 254.519531 282.71875 215.039062 305.519531 176.640625 295.261719 L 153.660156 289.078125 L 153.660156 307.199219 C 153.660156 328.378906 170.878906 345.601562 192.058594 345.601562 L 307.261719 345.601562 C 328.441406 345.601562 345.660156 328.378906 345.660156 307.199219 L 345.660156 192 C 345.660156 170.820312 328.441406 153.601562 307.261719 153.601562 Z M 289.199219 153.601562 "/>
</g>
</svg>
