<?xml version="1.0" encoding="UTF-8"?>
<svg xmlns="http://www.w3.org/2000/svg" xmlns:xlink="http://www.w3.org/1999/xlink" width="128px" height="128px" viewBox="0 0 128 128" version="1.1">
<g id="surface1">
<path style=" stroke:none;fill-rule:nonzero;fill:rgb(0%,0%,0%);fill-opacity:1;" d="M 41.078125 13.261719 C 33.398438 11.199219 25.5 15.761719 23.460938 23.441406 L 13.300781 61.339844 C 11.238281 69.019531 15.800781 76.921875 23.480469 78.980469 L 61.378906 89.140625 C 69.058594 91.199219 76.960938 86.640625 79.019531 78.960938 L 89.179688 41.058594 C 91.238281 33.378906 86.679688 25.480469 79 23.421875 Z M 45.679688 54.398438 C 44.460938 52.421875 44.421875 49.921875 45.558594 47.898438 C 46.699219 45.878906 48.859375 44.640625 51.199219 44.660156 C 53.519531 44.679688 55.640625 45.960938 56.761719 48 C 57.980469 49.980469 58.019531 52.480469 56.878906 54.5 C 55.738281 56.519531 53.578125 57.761719 51.238281 57.738281 C 48.921875 57.71875 46.800781 56.441406 45.679688 54.398438 Z M 28.640625 56.859375 C 30.621094 55.640625 33.121094 55.601562 35.140625 56.738281 C 37.160156 57.878906 38.398438 60.039062 38.378906 62.378906 C 38.359375 64.699219 37.078125 66.820312 35.039062 67.941406 C 33.058594 69.160156 30.558594 69.199219 28.539062 68.058594 C 26.519531 66.921875 25.28125 64.761719 25.300781 62.421875 C 25.320312 60.101562 26.601562 57.980469 28.640625 56.859375 Z M 65.640625 76.140625 C 63.660156 77.359375 61.160156 77.398438 59.140625 76.261719 C 57.121094 75.121094 55.878906 72.960938 55.898438 70.621094 C 55.921875 68.300781 57.199219 66.179688 59.238281 65.058594 C 61.21875 63.839844 63.71875 63.800781 65.738281 64.941406 C 67.761719 66.078125 69 68.238281 68.980469 70.578125 C 68.960938 72.898438 67.679688 75.019531 65.640625 76.140625 Z M 67.441406 34.460938 C 69.421875 33.238281 71.921875 33.199219 73.941406 34.339844 C 75.960938 35.480469 77.199219 37.640625 77.179688 39.980469 C 77.160156 42.300781 75.878906 44.421875 73.839844 45.539062 C 71.859375 46.761719 69.359375 46.800781 67.339844 45.660156 C 65.320312 44.519531 64.078125 42.359375 64.101562 40.019531 C 64.121094 37.699219 65.398438 35.578125 67.441406 34.460938 Z M 43.238281 37.339844 C 41.261719 38.558594 38.761719 38.601562 36.738281 37.460938 C 34.71875 36.320312 33.480469 34.160156 33.5 31.820312 C 33.519531 29.5 34.800781 27.378906 36.839844 26.261719 C 38.820312 25.039062 41.320312 25 43.339844 26.140625 C 45.359375 27.28125 46.601562 29.441406 46.578125 31.78125 C 46.558594 34.101562 45.28125 36.21875 43.238281 37.339844 Z M 96.398438 51.199219 L 88.28125 81.441406 C 84.839844 94.238281 71.679688 101.839844 58.878906 98.421875 L 51.21875 96.359375 L 51.21875 102.398438 C 51.21875 109.460938 56.960938 115.199219 64.019531 115.199219 L 102.421875 115.199219 C 109.480469 115.199219 115.21875 109.460938 115.21875 102.398438 L 115.21875 64 C 115.21875 56.941406 109.480469 51.199219 102.421875 51.199219 Z M 96.398438 51.199219 "/>
</g>
</svg>
