<?xml version="1.0" encoding="UTF-8"?>
<svg xmlns="http://www.w3.org/2000/svg" xmlns:xlink="http://www.w3.org/1999/xlink" width="512px" height="512px" viewBox="0 0 512 512" version="1.1">
<g id="surface1">
<path style=" stroke:none;fill-rule:nonzero;fill:rgb(0%,0%,0%);fill-opacity:1;" d="M 164.320312 53.039062 C 133.601562 44.800781 102 63.039062 93.839844 93.761719 L 53.199219 245.359375 C 44.960938 276.078125 63.199219 307.679688 93.921875 315.921875 L 245.519531 356.558594 C 276.238281 364.800781 307.839844 346.558594 316.078125 315.839844 L 356.71875 164.238281 C 364.960938 133.519531 346.71875 101.921875 316 93.679688 Z M 182.71875 217.601562 C 177.839844 209.679688 177.679688 199.679688 182.238281 191.601562 C 186.800781 183.519531 195.441406 178.558594 204.800781 178.640625 C 214.078125 178.71875 222.558594 183.839844 227.039062 192 C 231.921875 199.921875 232.078125 209.921875 227.519531 218 C 222.960938 226.078125 214.320312 231.039062 204.960938 230.960938 C 195.679688 230.878906 187.199219 225.761719 182.71875 217.601562 Z M 114.558594 227.441406 C 122.480469 222.558594 132.480469 222.398438 140.558594 226.960938 C 148.640625 231.519531 153.601562 240.160156 153.519531 249.519531 C 153.441406 258.800781 148.320312 267.28125 140.160156 271.761719 C 132.238281 276.640625 122.238281 276.800781 114.160156 272.238281 C 106.078125 267.679688 101.121094 259.039062 101.199219 249.679688 C 101.28125 240.398438 106.398438 231.921875 114.558594 227.441406 Z M 262.558594 304.558594 C 254.640625 309.441406 244.640625 309.601562 236.558594 305.039062 C 228.480469 300.480469 223.519531 291.839844 223.601562 282.480469 C 223.679688 273.199219 228.800781 264.71875 236.960938 260.238281 C 244.878906 255.359375 254.878906 255.199219 262.960938 259.761719 C 271.039062 264.320312 276 272.960938 275.921875 282.320312 C 275.839844 291.601562 270.71875 300.078125 262.558594 304.558594 Z M 269.761719 137.839844 C 277.679688 132.960938 287.679688 132.800781 295.761719 137.359375 C 303.839844 141.921875 308.800781 150.558594 308.71875 159.921875 C 308.640625 169.199219 303.519531 177.679688 295.359375 182.160156 C 287.441406 187.039062 277.441406 187.199219 269.359375 182.640625 C 261.28125 178.078125 256.320312 169.441406 256.398438 160.078125 C 256.480469 150.800781 261.601562 142.320312 269.761719 137.839844 Z M 172.960938 149.359375 C 165.039062 154.238281 155.039062 154.398438 146.960938 149.839844 C 138.878906 145.28125 133.921875 136.640625 134 127.28125 C 134.078125 118 139.199219 109.519531 147.359375 105.039062 C 155.28125 100.160156 165.28125 100 173.359375 104.558594 C 181.441406 109.121094 186.398438 117.761719 186.320312 127.121094 C 186.238281 136.398438 181.121094 144.878906 172.960938 149.359375 Z M 385.601562 204.800781 L 353.121094 325.761719 C 339.359375 376.960938 286.71875 407.359375 235.519531 393.679688 L 204.878906 385.441406 L 204.878906 409.601562 C 204.878906 437.839844 227.839844 460.800781 256.078125 460.800781 L 409.679688 460.800781 C 437.921875 460.800781 460.878906 437.839844 460.878906 409.601562 L 460.878906 256 C 460.878906 227.761719 437.921875 204.800781 409.679688 204.800781 Z M 385.601562 204.800781 "/>
</g>
</svg>
