<?xml version="1.0" encoding="UTF-8"?>
<svg xmlns="http://www.w3.org/2000/svg" xmlns:xlink="http://www.w3.org/1999/xlink" width="72px" height="72px" viewBox="0 0 72 72" version="1.1">
<g id="surface1">
<path style=" stroke:none;fill-rule:nonzero;fill:rgb(0%,0%,0%);fill-opacity:1;" d="M 23.109375 7.457031 C 18.789062 6.300781 14.34375 8.863281 13.195312 13.183594 L 7.480469 34.503906 C 6.324219 38.824219 8.886719 43.265625 13.207031 44.425781 L 34.527344 50.140625 C 38.847656 51.300781 43.289062 48.734375 44.449219 44.414062 L 50.164062 23.097656 C 51.324219 18.777344 48.757812 14.332031 44.4375 13.171875 Z M 25.695312 30.601562 C 25.007812 29.484375 24.984375 28.078125 25.628906 26.945312 C 26.269531 25.808594 27.484375 25.109375 28.800781 25.121094 C 30.105469 25.132812 31.296875 25.851562 31.925781 27 C 32.613281 28.113281 32.636719 29.519531 31.996094 30.65625 C 31.355469 31.792969 30.140625 32.488281 28.824219 32.480469 C 27.515625 32.46875 26.324219 31.746094 25.695312 30.601562 Z M 16.109375 31.984375 C 17.222656 31.296875 18.628906 31.273438 19.765625 31.917969 C 20.902344 32.558594 21.601562 33.773438 21.589844 35.089844 C 21.578125 36.394531 20.859375 37.585938 19.710938 38.214844 C 18.597656 38.902344 17.191406 38.925781 16.054688 38.285156 C 14.917969 37.640625 14.21875 36.425781 14.230469 35.109375 C 14.242188 33.804688 14.960938 32.613281 16.109375 31.984375 Z M 36.921875 42.828125 C 35.808594 43.515625 34.402344 43.539062 33.265625 42.894531 C 32.128906 42.253906 31.433594 41.039062 31.445312 39.722656 C 31.453125 38.417969 32.175781 37.226562 33.324219 36.597656 C 34.4375 35.910156 35.84375 35.886719 36.980469 36.527344 C 38.113281 37.171875 38.8125 38.386719 38.800781 39.703125 C 38.789062 41.007812 38.070312 42.199219 36.921875 42.828125 Z M 37.933594 19.382812 C 39.046875 18.699219 40.453125 18.675781 41.589844 19.316406 C 42.726562 19.957031 43.425781 21.171875 43.414062 22.488281 C 43.402344 23.792969 42.683594 24.984375 41.535156 25.617188 C 40.421875 26.300781 39.015625 26.324219 37.878906 25.683594 C 36.742188 25.042969 36.046875 23.828125 36.054688 22.511719 C 36.066406 21.207031 36.789062 20.015625 37.933594 19.382812 Z M 24.324219 21.003906 C 23.207031 21.691406 21.800781 21.710938 20.667969 21.070312 C 19.53125 20.429688 18.832031 19.214844 18.84375 17.898438 C 18.855469 16.59375 19.574219 15.402344 20.722656 14.769531 C 21.835938 14.085938 23.242188 14.0625 24.378906 14.703125 C 25.515625 15.34375 26.210938 16.558594 26.203125 17.875 C 26.191406 19.179688 25.46875 20.375 24.324219 21.003906 Z M 54.226562 28.800781 L 49.65625 45.808594 C 47.722656 53.011719 40.320312 57.285156 33.121094 55.359375 L 28.8125 54.203125 L 28.8125 57.601562 C 28.8125 61.570312 32.039062 64.800781 36.011719 64.800781 L 57.609375 64.800781 C 61.582031 64.800781 64.8125 61.570312 64.8125 57.601562 L 64.8125 36 C 64.8125 32.027344 61.582031 28.800781 57.609375 28.800781 Z M 54.226562 28.800781 "/>
</g>
</svg>
